<?xml version="1.0" standalone="no"?>
<!DOCTYPE svg PUBLIC "-//W3C//DTD SVG 20010904//EN"
 "http://www.w3.org/TR/2001/REC-SVG-20010904/DTD/svg10.dtd">
<svg version="1.0" xmlns="http://www.w3.org/2000/svg"
 width="500.000000pt" height="500.000000pt" viewBox="0 0 500.000000 500.000000"
 preserveAspectRatio="xMidYMid meet">

<g transform="translate(0.000000,500.000000) scale(0.100000,-0.100000)"
fill="#000000" stroke="none">
<path d="M2081 4499 c-270 -36 -473 -214 -542 -476 -30 -111 -30 -315 0 -428
64 -245 222 -405 460 -466 107 -28 296 -27 404 0 222 58 373 199 444 416 35
108 44 320 18 446 -50 251 -223 434 -465 493 -86 20 -227 27 -319 15z m267
-300 c133 -66 190 -204 179 -432 -7 -143 -31 -218 -94 -287 -64 -71 -110 -92
-209 -98 -213 -12 -330 114 -350 373 -12 160 27 308 104 389 59 62 121 86 223
86 76 0 93 -4 147 -31z"/>
<path d="M940 3828 c0 -430 -4 -676 -11 -701 -16 -60 -45 -72 -166 -70 l-103
1 0 -138 c0 -76 4 -141 9 -144 5 -4 63 -9 128 -12 199 -11 317 20 396 105 50
54 83 130 97 229 5 38 10 358 10 730 l0 662 -180 0 -180 0 0 -662z"/>
<path d="M3100 3805 l0 -685 175 0 175 0 2 268 3 267 95 -1 c95 -1 148 -16
167 -46 4 -7 49 -119 99 -248 l92 -235 190 -3 190 -2 -78 199 c-116 293 -131
319 -215 360 l-38 18 56 26 c72 33 151 112 184 184 35 76 43 212 19 299 -45
157 -160 246 -353 274 -38 5 -224 10 -415 10 l-348 0 0 -685z m704 397 c59
-20 86 -54 93 -114 7 -63 -18 -113 -71 -141 -36 -19 -60 -22 -208 -25 l-168
-4 0 151 0 151 153 0 c116 -1 163 -5 201 -18z"/>
<path d="M1333 1809 c-299 -35 -522 -239 -579 -529 -20 -101 -14 -291 11 -385
60 -217 219 -377 441 -445 187 -56 514 -36 722 44 l57 22 3 342 2 342 -280 0
-280 0 0 -120 0 -120 120 0 121 0 -3 -127 -3 -127 -30 -8 c-54 -16 -235 -13
-296 5 -147 43 -222 159 -236 362 -7 117 9 224 48 302 55 113 149 165 304 167
117 1 198 -17 299 -69 l81 -41 53 118 c28 65 52 123 52 128 0 20 -96 71 -186
100 -52 16 -135 33 -194 39 -113 12 -123 12 -227 0z"/>
<path d="M2220 1115 l0 -685 485 0 485 0 0 140 0 140 -310 0 -310 0 0 140 0
140 290 0 290 0 0 135 0 135 -290 0 -290 0 0 135 0 135 310 0 310 0 0 135 0
135 -485 0 -485 0 0 -685z"/>
<path d="M3347 783 c-4 -3 -7 -84 -7 -180 l0 -173 180 0 180 0 0 180 0 180
-173 0 c-96 0 -177 -3 -180 -7z"/>
</g>
</svg>
